<svg xmlns="http://www.w3.org/2000/svg" viewBox="0 0 24 24" fill="none" stroke="#60a5fa" stroke-width="1.5" stroke-linecap="round" stroke-linejoin="round">
  <path d="M12 2a4 4 0 0 1 4 4c0 1.5-.8 2.8-2 3.4V11h3a3 3 0 0 1 3 3v1.6c1.2.6 2 1.9 2 3.4a4 4 0 0 1-8 0c0-1.5.8-2.8 2-3.4V14a1 1 0 0 0-1-1h-6a1 1 0 0 0-1 1v1.6c1.2.6 2 1.9 2 3.4a4 4 0 0 1-8 0c0-1.5.8-2.8 2-3.4V14a3 3 0 0 1 3-3h3V9.4C7.8 8.8 7 7.5 7 6a4 4 0 0 1 5-3.9"/>
  <circle cx="12" cy="6" r="1"/>
  <circle cx="6" cy="19" r="1"/>
  <circle cx="18" cy="19" r="1"/>
</svg>
